<?xml version="1.0" encoding="utf-8"?>
<!-- Generator: Adobe Illustrator 24.0.2, SVG Export Plug-In . SVG Version: 6.00 Build 0)  -->
<svg version="1.1" id="Layer_1" xmlns="http://www.w3.org/2000/svg" xmlns:xlink="http://www.w3.org/1999/xlink" x="0px" y="0px"
	 viewBox="0 0 344.2 222.5" style="enable-background:new 0 0 344.2 222.5;" xml:space="preserve">
<style type="text/css">
	.st0{fill:#9292A8;}
	.st1{fill:#E7E6EE;}
	.st2{fill:#8680BD;}
	.st3{fill:#D2CEE7;}
	.st4{fill:none;stroke:#474757;stroke-width:2.5;stroke-linecap:round;stroke-miterlimit:10;}
	.st5{fill:#474757;}
	.st6{fill:none;stroke:#9292A8;stroke-width:3;stroke-linecap:round;stroke-miterlimit:10;}
</style>
<path class="st0" d="M247.9,195.7c0,5.9-33.9,10.7-75.8,10.7c-41.8,0-75.8-4.8-75.8-10.7c0-5.9,33.9-10.7,75.8-10.7
	C213.9,184.9,247.9,189.7,247.9,195.7z"/>
<g>
	<g>
		<path class="st1" d="M317,161.5c0,3.5-2.9,6.3-6.3,6.3H33.6c-3.5,0-6.3-2.9-6.3-6.3V6.3c0-3.5,2.9-6.3,6.3-6.3h277.1
			c3.5,0,6.3,2.9,6.3,6.3V161.5z"/>
		<path class="st2" d="M310.6,0h-277c-3.5,0-6.3,2.9-6.3,6.3v16.1h289.8V6.3C317,2.8,314.1,0,310.6,0z"/>
		<rect x="27.2" y="22.1" class="st3" width="289.8" height="5"/>
		<g>
			<path class="st1" d="M269.5,13.8c0,1.6-1.4,3-3,3H83.7c-1.6,0-3-1.4-3-3V8.7c0-1.7,1.4-3,3-3h182.7c1.6,0,3,1.3,3,3v5.1H269.5z"
				/>
		</g>
		<g>
			<path class="st1" d="M303.1,13.8c0,1.6-1.4,3-3,3h-19.3c-1.6,0-3-1.4-3-3V8.7c0-1.7,1.4-3,3-3h19.3c1.6,0,3,1.3,3,3V13.8z"/>
		</g>
		<path class="st1" d="M47.1,11.2c0,2.1-1.7,3.8-3.8,3.8c-2.1,0-3.8-1.7-3.8-3.8s1.7-3.8,3.8-3.8C45.4,7.4,47.1,9.1,47.1,11.2z"/>
		<path class="st1" d="M58.4,11.2c0,2.1-1.7,3.8-3.8,3.8s-3.8-1.7-3.8-3.8s1.7-3.8,3.8-3.8C56.6,7.4,58.4,9.1,58.4,11.2z"/>
		<path class="st1" d="M69.6,11.2c0,2.1-1.7,3.8-3.8,3.8S62,13.3,62,11.2s1.7-3.8,3.8-3.8S69.6,9.1,69.6,11.2z"/>
	</g>
	<g>
		<path class="st3" d="M35.6,161.5c0-1.3,1.4-2.3,3-2.3h266.9c1.6,0,3,1.1,3,2.3c0,1.3-1.4,2.3-3,2.3H38.6
			C37,163.9,35.6,162.8,35.6,161.5z"/>
	</g>
	<g>
		<g>
			<line class="st4" x1="91.5" y1="94.7" x2="78" y2="82.8"/>
			<line class="st4" x1="90.7" y1="82" x2="78.8" y2="95.5"/>
		</g>
		<g>
			<line class="st4" x1="266.2" y1="94.7" x2="252.7" y2="82.8"/>
			<line class="st4" x1="265.4" y1="82" x2="253.5" y2="95.5"/>
		</g>
	</g>
	<g>
		<g>
			<g>
				<path class="st5" d="M10.2,112.2H7.3c0-11,8.9-19.9,19.9-19.9v2.9C17.9,95.2,10.2,102.8,10.2,112.2z"/>
			</g>
			<g>
				<path class="st5" d="M13.6,115.6c0,2.7-2.2,4.9-4.9,4.9c-2.7,0-4.9-2.2-4.9-4.9c0-2.7,2.2-4.9,4.9-4.9
					C11.5,110.7,13.6,112.9,13.6,115.6z"/>
			</g>
			<g>
				<path class="st5" d="M8.8,124.1c-0.5,0-1-0.4-1-1v-5.7c0-0.5,0.4-1,1-1c0.5,0,1,0.4,1,1v5.7C9.8,123.7,9.3,124.1,8.8,124.1z"/>
			</g>
			<g>
				<g>
					<path class="st5" d="M12,124.1c-0.5,0-1-0.4-1-1v-5.7c0-0.5,0.4-1,1-1c0.5,0,1,0.4,1,1v5.7C13,123.7,12.6,124.1,12,124.1z"/>
				</g>
				<g>
					<path class="st5" d="M5.6,124.1c-0.5,0-1-0.4-1-1v-5.7c0-0.5,0.4-1,1-1c0.5,0,1,0.4,1,1v5.7C6.6,123.7,6.1,124.1,5.6,124.1z"/>
				</g>
			</g>
			<g>
				<path class="st5" d="M15.7,119.4c-0.2,0-0.5-0.1-0.7-0.3l-4.1-4.1c-0.4-0.4-0.4-1,0-1.4s1-0.4,1.4,0l4.1,4.1
					c0.4,0.4,0.4,1,0,1.4C16.2,119.3,15.9,119.4,15.7,119.4z"/>
			</g>
		</g>
		<g>
			<g>
				<path class="st5" d="M336.9,112.2H334c0-9.4-7.6-17-17-17v-2.9C328,92.3,336.9,101.2,336.9,112.2z"/>
			</g>
			<g>
				<g>
					<path class="st5" d="M330.6,115.6c0,2.7,2.2,4.9,4.9,4.9c2.7,0,4.9-2.2,4.9-4.9c0-2.7-2.2-4.9-4.9-4.9
						C332.7,110.7,330.6,112.9,330.6,115.6z"/>
				</g>
			</g>
			<g>
				<g>
					<path class="st5" d="M335.4,124.1c-0.5,0-1-0.4-1-1v-5.7c0-0.5,0.4-1,1-1c0.5,0,1,0.4,1,1v5.7
						C336.4,123.7,335.9,124.1,335.4,124.1z"/>
				</g>
			</g>
			<g>
				<g>
					<g>
						<path class="st5" d="M332.2,124.1c-0.5,0-1-0.4-1-1v-5.7c0-0.5,0.4-1,1-1c0.5,0,1,0.4,1,1v5.7
							C333.2,123.7,332.7,124.1,332.2,124.1z"/>
					</g>
					<g>
						<path class="st5" d="M338.6,124.1c-0.5,0-1-0.4-1-1v-5.7c0-0.5,0.4-1,1-1c0.5,0,1,0.4,1,1v5.7
							C339.6,123.7,339.2,124.1,338.6,124.1z"/>
					</g>
				</g>
			</g>
			<g>
				<g>
					<path class="st5" d="M328.5,119.4c-0.2,0-0.5-0.1-0.7-0.3c-0.4-0.4-0.4-1,0-1.4l4.1-4.1c0.4-0.4,1-0.4,1.4,0s0.4,1,0,1.4
						l-4.1,4.1C329,119.3,328.8,119.4,328.5,119.4z"/>
				</g>
			</g>
		</g>
	</g>
	<g>
		<g>
			<g>
				<rect x="121.5" y="167.9" class="st5" width="2.9" height="27.4"/>
			</g>
			<path class="st5" d="M124.4,195.2c0-4.1-3.3-7.4-7.4-7.4c-4.1,0-7.4,3.3-7.4,7.4H124.4z"/>
		</g>
		<g>
			<g>
				<rect x="219.8" y="167.9" class="st5" width="2.9" height="27.4"/>
			</g>
			<path class="st5" d="M219.8,195.2c0-4.1,3.3-7.4,7.4-7.4s7.4,3.3,7.4,7.4H219.8z"/>
		</g>
	</g>
	<line class="st4" x1="139.1" y1="115.4" x2="205.1" y2="115.4"/>
</g>
<g>
	<line class="st6" x1="88" y1="201.6" x2="22" y2="201.6"/>
	<line class="st6" x1="12.6" y1="201.6" x2="1.5" y2="201.6"/>
	<line class="st6" x1="256.2" y1="201.6" x2="322.2" y2="201.6"/>
	<line class="st6" x1="123.7" y1="221" x2="169" y2="221"/>
	<line class="st6" x1="331.6" y1="201.6" x2="342.7" y2="201.6"/>
	<line class="st6" x1="177.5" y1="221" x2="188.6" y2="221"/>
	<line class="st6" x1="286.7" y1="221" x2="241.4" y2="221"/>
	<line class="st6" x1="79.2" y1="221" x2="68.2" y2="221"/>
</g>
</svg>
