<?xml version="1.0" encoding="utf-8"?>
<!-- Generator: Adobe Illustrator 24.0.2, SVG Export Plug-In . SVG Version: 6.00 Build 0)  -->
<svg version="1.1" id="Layer_1" xmlns="http://www.w3.org/2000/svg" xmlns:xlink="http://www.w3.org/1999/xlink" x="0px" y="0px"
	 viewBox="0 0 87.6 87.6" style="enable-background:new 0 0 87.6 87.6;" xml:space="preserve">
<style type="text/css">
	.st0{clip-path:url(#SVGID_2_);}
	.st1{fill:#8680BD;}
</style>
<g>
	<g>
		<defs>
			<circle id="SVGID_1_" cx="43.8" cy="43.8" r="42.9"/>
		</defs>
		<clipPath id="SVGID_2_">
			<use xlink:href="#SVGID_1_"  style="overflow:visible;"/>
		</clipPath>
		<g class="st0">
			<g>
				<g>
					<path class="st1" d="M33.2,39.8H10.9c-0.3,0-0.6-0.1-0.7-0.4s-0.2-0.5-0.2-0.8l5-20c0.1-0.4,0.5-0.7,0.9-0.7h12.3
						c0.4,0,0.8,0.3,0.9,0.7l5,20c0.1,0.3,0,0.6-0.2,0.8C33.8,39.7,33.5,39.8,33.2,39.8z M12.1,37.9H32l-4.5-18.2H16.6L12.1,37.9z"
						/>
					<path class="st1" d="M22.1,85.6c-0.5,0-0.9-0.4-0.9-0.9V38.9c0-0.5,0.4-0.9,0.9-0.9s0.9,0.4,0.9,0.9v45.8
						C23,85.2,22.6,85.6,22.1,85.6z"/>
					<path class="st1" d="M33.2,88.4H10.9c-0.5,0-0.9-0.4-0.9-0.9c0-2.1,1.7-3.8,3.8-3.8h16.6c2.1,0,3.8,1.7,3.8,3.8
						C34.1,88,33.7,88.4,33.2,88.4z M12.1,86.6h20c-0.3-0.6-1-1-1.7-1H13.8C13,85.6,12.4,86,12.1,86.6z"/>
				</g>
				<g>
					<path class="st1" d="M50.9,68.1c-0.5,0-1-0.4-1-0.9l0-2.6c0-3.4-2.8-6.2-6.2-6.2c0,0,0,0,0,0c-0.5,0-0.9-0.4-0.9-0.9l0-8.4
						c0-5,4-9,9-9l57.5-0.1c0,0,0,0,0,0c5,0,9,4,9,9l0,0l0,8.4c0,0.5-0.4,0.9-0.9,0.9c-3.4,0-6.2,2.8-6.2,6.2l0,2.6
						c0,0.5-0.4,0.9-0.9,0.9c0,0,0,0,0,0c-0.5,0-0.9-0.3-1-0.8c-0.2-1.1-1.1-2-2.3-2c0,0,0,0,0,0l-52.8,0.1c-1.1,0-2.1,0.9-2.3,2
						C51.8,67.7,51.4,68.1,50.9,68.1z M44.7,56.5c3.9,0.4,7,3.7,7.1,7.6c0.7-0.4,1.5-0.7,2.3-0.7l52.8-0.1c0,0,0,0,0,0
						c0.8,0,1.6,0.3,2.3,0.7c0.2-4,3.2-7.2,7.1-7.6l0-7.5c0-3.9-3.2-7.1-7.1-7.1c0,0,0,0,0,0l-57.5,0.1c-3.9,0-7.1,3.2-7.1,7.1
						L44.7,56.5z"/>
					<path class="st1" d="M36.6,88.7c-0.5,0-0.9-0.4-0.9-0.9l0-23.3c0-2.2,0.8-4.2,2.4-5.7c1.5-1.5,3.6-2.4,5.7-2.4c0,0,0,0,0,0
						c2.2,0,4.2,0.8,5.7,2.4c1.5,1.5,2.4,3.5,2.4,5.7l0,23.3c0,0.2-0.1,0.5-0.3,0.7c-0.2,0.2-0.4,0.3-0.7,0.3L36.6,88.7
						C36.6,88.7,36.6,88.7,36.6,88.7z M43.7,58.3C43.7,58.3,43.7,58.3,43.7,58.3c-1.7,0-3.2,0.6-4.4,1.8c-1.2,1.2-1.8,2.7-1.8,4.4
						l0,22.4l12.4,0l0-22.4l0,0c0-1.7-0.6-3.2-1.8-4.4C47,58.9,45.4,58.3,43.7,58.3z"/>
					<path class="st1" d="M50.9,88.7c-0.2,0-0.5-0.1-0.7-0.3C50.1,88.3,50,88,50,87.8l0-15.2c0-0.5,0.4-0.9,0.9-0.9l56.1-0.1
						c0.9,0,1.8-0.6,2.1-1.4c0.1-0.4,0.5-0.6,0.9-0.6c0.4,0,0.7,0.2,0.9,0.6c0.2,0.5,0.3,1.1,0.3,1.7v0l0,15.8
						c0,0.5-0.4,0.9-0.9,0.9L50.9,88.7C50.9,88.7,50.9,88.7,50.9,88.7z M51.8,73.5l0,13.4l57.4-0.1l0-14c-0.7,0.4-1.5,0.7-2.3,0.7
						L51.8,73.5z"/>
					<path class="st1" d="M50.9,73.5c-0.5,0-0.9-0.4-0.9-0.9l0-5c0-0.2,0-0.4,0-0.6c0.3-2,2.1-3.6,4.1-3.6l52.8-0.1c0,0,0,0,0,0
						c2.1,0,3.8,1.5,4.1,3.6c0,0.2,0,0.4,0,0.6l0,1.7c0,0.6-0.1,1.1-0.3,1.6c-0.6,1.6-2.1,2.6-3.8,2.6L50.9,73.5
						C50.9,73.5,50.9,73.5,50.9,73.5z M106.9,65.2C106.9,65.2,106.9,65.2,106.9,65.2l-52.8,0.1c-1.1,0-2.1,0.9-2.3,2
						c0,0.1,0,0.2,0,0.3l0,4.1l55.1-0.1c0.9,0,1.8-0.6,2.1-1.4c0.1-0.3,0.2-0.6,0.2-0.9l0-1.7c0,0,0,0,0,0c0-0.1,0-0.2,0-0.3
						C109.1,66.1,108.1,65.2,106.9,65.2z M111.1,67.5L111.1,67.5L111.1,67.5z"/>
					<g>
						<path class="st1" d="M65.1,54.9c-0.2,0-0.5-0.1-0.7-0.3l-2.7-2.7c-0.4-0.4-0.4-1,0-1.3c0.4-0.4,1-0.4,1.3,0l2.7,2.7
							c0.4,0.4,0.4,1,0,1.3C65.5,54.8,65.3,54.9,65.1,54.9z"/>
						<path class="st1" d="M62.3,54.9c-0.2,0-0.5-0.1-0.7-0.3c-0.4-0.4-0.4-1,0-1.3l2.7-2.7c0.4-0.4,1-0.4,1.3,0
							c0.4,0.4,0.4,1,0,1.3L63,54.6C62.8,54.8,62.6,54.9,62.3,54.9z"/>
					</g>
				</g>
				<g>
					<path class="st1" d="M80.5,36.4H44.2c-0.5,0-0.9-0.4-0.9-0.9V3.2c0-0.5,0.4-0.9,0.9-0.9h36.3c0.5,0,0.9,0.4,0.9,0.9v32.3
						C81.5,36,81,36.4,80.5,36.4z M45.2,34.5h34.4V4.1H45.2V34.5z"/>
					<path class="st1" d="M75.3,31.6H49c-0.5,0-0.9-0.4-0.9-0.9V8c0-0.5,0.4-0.9,0.9-0.9h26.3c0.5,0,0.9,0.4,0.9,0.9v22.7
						C76.2,31.2,75.8,31.6,75.3,31.6z M50,29.7h24.4V8.9H50V29.7z"/>
					<path class="st1" d="M44.2,36.4c-0.2,0-0.5-0.1-0.7-0.3c-0.4-0.4-0.4-1,0-1.3l4.8-4.8c0.4-0.4,1-0.4,1.3,0c0.4,0.4,0.4,1,0,1.3
						l-4.8,4.8C44.7,36.3,44.5,36.4,44.2,36.4z"/>
					<path class="st1" d="M49,8.9c-0.2,0-0.5-0.1-0.7-0.3l-4.8-4.8c-0.4-0.4-0.4-1,0-1.3c0.4-0.4,1-0.4,1.3,0l4.8,4.8
						c0.4,0.4,0.4,1,0,1.3C49.5,8.8,49.3,8.9,49,8.9z"/>
					<path class="st1" d="M75.3,8.9c-0.3,0-0.5-0.1-0.7-0.3c-0.3-0.4-0.3-1,0.1-1.3l5.2-4.8c0.4-0.3,1-0.3,1.3,0.1
						c0.3,0.4,0.3,1-0.1,1.3l-5.2,4.8C75.7,8.8,75.5,8.9,75.3,8.9z"/>
					<path class="st1" d="M80.5,36.4c-0.2,0-0.4-0.1-0.6-0.2l-5.2-4.8c-0.4-0.3-0.4-0.9-0.1-1.3c0.3-0.4,0.9-0.4,1.3-0.1l5.2,4.8
						c0.4,0.3,0.4,0.9,0.1,1.3C81,36.3,80.8,36.4,80.5,36.4z"/>
					<path class="st1" d="M70.6,4.1h-9.4c-0.4,0-0.7-0.2-0.8-0.5c-0.2-0.3-0.1-0.7,0.1-1l4.7-5.7c0.4-0.4,1.1-0.4,1.4,0l4.7,5.7
						c0.2,0.3,0.3,0.7,0.1,1C71.2,3.9,70.9,4.1,70.6,4.1z M63.1,2.3h5.4L65.9-1L63.1,2.3z"/>
				</g>
				<path class="st1" d="M100.2,88.7H-25.1c-0.5,0-0.9-0.4-0.9-0.9c0-0.5,0.4-0.9,0.9-0.9h125.3c0.5,0,0.9,0.4,0.9,0.9
					C101.1,88.3,100.7,88.7,100.2,88.7z"/>
			</g>
		</g>
	</g>
	<path class="st1" d="M43.8,87.6C19.7,87.6,0,68,0,43.8S19.7,0,43.8,0s43.8,19.7,43.8,43.8S68,87.6,43.8,87.6z M43.8,1.9
		C20.7,1.9,1.9,20.7,1.9,43.8s18.8,41.9,41.9,41.9s41.9-18.8,41.9-41.9S66.9,1.9,43.8,1.9z"/>
</g>
</svg>
