<?xml version="1.0" encoding="utf-8"?>
<!-- Generator: Adobe Illustrator 24.0.2, SVG Export Plug-In . SVG Version: 6.00 Build 0)  -->
<svg version="1.1" id="Layer_1" xmlns="http://www.w3.org/2000/svg" xmlns:xlink="http://www.w3.org/1999/xlink" x="0px" y="0px"
	 viewBox="0 0 224 174.5" style="enable-background:new 0 0 224 174.5;" xml:space="preserve">
<style type="text/css">
	.st0{clip-path:url(#SVGID_2_);}
	.st1{fill:#FFFFFF;}
</style>
<g>
	<g>
		<defs>
			<circle id="SVGID_1_" cx="111.9" cy="57.2" r="56"/>
		</defs>
		<clipPath id="SVGID_2_">
			<use xlink:href="#SVGID_1_"  style="overflow:visible;"/>
		</clipPath>
		<g class="st0">
			<g>
				<g>
					<path class="st1" d="M98.1,52H68.9c-0.4,0-0.7-0.2-1-0.5c-0.2-0.3-0.3-0.7-0.2-1l6.5-26.2c0.1-0.5,0.6-0.9,1.2-0.9h16.1
						c0.6,0,1,0.4,1.2,0.9l6.5,26.2c0.1,0.4,0,0.7-0.2,1C98.8,51.8,98.5,52,98.1,52z M70.5,49.6h26l-5.9-23.7H76.4L70.5,49.6z"/>
					<path class="st1" d="M83.5,111.8c-0.7,0-1.2-0.5-1.2-1.2V50.8c0-0.7,0.5-1.2,1.2-1.2s1.2,0.5,1.2,1.2v59.8
						C84.7,111.3,84.2,111.8,83.5,111.8z"/>
					<path class="st1" d="M98.1,115.6H68.9c-0.7,0-1.2-0.5-1.2-1.2c0-2.7,2.2-5,5-5h21.7c2.7,0,5,2.2,5,5
						C99.3,115,98.8,115.6,98.1,115.6z M70.5,113.1h26.1c-0.4-0.8-1.3-1.3-2.2-1.3H72.7C71.7,111.8,70.9,112.4,70.5,113.1z"/>
				</g>
				<g>
					<path class="st1" d="M121.2,88.9c-0.7,0-1.3-0.5-1.3-1.2l0-3.4c0-4.5-3.6-8.1-8.1-8.1c0,0,0,0,0,0c-0.7,0-1.2-0.5-1.2-1.2l0-11
						c0-6.5,5.3-11.8,11.7-11.8l75.1-0.1c0,0,0,0,0,0c6.5,0,11.8,5.3,11.8,11.7l0,0l0,11c0,0.7-0.5,1.2-1.2,1.2
						c-4.5,0-8.1,3.6-8.1,8.1l0,3.4c0,0.7-0.5,1.2-1.2,1.2c0,0,0,0,0,0c-0.6,0-1.2-0.4-1.2-1c-0.2-1.5-1.5-2.6-3-2.6c0,0,0,0,0,0
						l-69,0.1c-1.5,0-2.8,1.1-3,2.6C122.4,88.5,121.8,88.9,121.2,88.9z M113.1,73.8c5.1,0.6,9.1,4.8,9.3,10c0.9-0.6,1.9-0.9,3-0.9
						l69-0.1c0,0,0,0,0,0c1.1,0,2.2,0.3,3,0.9c0.2-5.2,4.2-9.4,9.3-10l0-9.8c0-5.1-4.2-9.3-9.3-9.3c0,0,0,0,0,0l-75.1,0.1
						c-5.1,0-9.3,4.2-9.3,9.3L113.1,73.8z"/>
					<path class="st1" d="M198.7,115.8c-0.3,0-0.6-0.1-0.9-0.4c-0.2-0.2-0.4-0.5-0.4-0.9l0-30.4c0-5.8,4.7-10.6,10.5-10.6
						c0,0,0,0,0,0c2.8,0,5.5,1.1,7.5,3.1c2,2,3.1,4.6,3.1,7.5l0,30.4c0,0.7-0.5,1.2-1.2,1.2L198.7,115.8
						C198.7,115.8,198.7,115.8,198.7,115.8z M208,76.1C208,76.1,208,76.1,208,76.1c-4.5,0-8.1,3.6-8.1,8.1l0,29.2l16.2,0l0-29.2
						c0-2.2-0.8-4.2-2.4-5.7C212.2,76.9,210.2,76.1,208,76.1z"/>
					<path class="st1" d="M102.6,115.9c-0.7,0-1.2-0.5-1.2-1.2l0-30.4c0-2.8,1.1-5.5,3.1-7.5s4.6-3.1,7.5-3.1c0,0,0,0,0,0
						c2.8,0,5.5,1.1,7.4,3.1c2,2,3.1,4.6,3.1,7.5l0,30.4c0,0.3-0.1,0.6-0.4,0.9c-0.2,0.2-0.5,0.4-0.9,0.4L102.6,115.9
						C102.6,115.9,102.6,115.9,102.6,115.9z M111.9,76.2C111.9,76.2,111.9,76.2,111.9,76.2c-2.2,0-4.2,0.8-5.7,2.4
						c-1.5,1.5-2.4,3.6-2.4,5.7l0,29.2l16.2,0l0-29.2l0,0c0-2.2-0.8-4.2-2.4-5.7C116.1,77,114,76.2,111.9,76.2z"/>
					<path class="st1" d="M121.2,115.9c-0.3,0-0.6-0.1-0.9-0.4c-0.2-0.2-0.4-0.5-0.4-0.9l0-19.9c0-0.7,0.5-1.2,1.2-1.2l73.3-0.1
						c1.2,0,2.3-0.7,2.8-1.9c0.2-0.5,0.6-0.8,1.1-0.8c0.5,0,0.9,0.3,1.1,0.8c0.3,0.7,0.4,1.5,0.4,2.2v0l0,20.7
						c0,0.7-0.5,1.2-1.2,1.2L121.2,115.9C121.2,115.9,121.2,115.9,121.2,115.9z M122.4,96l0,17.4l75.1-0.1l0-18.4
						c-0.9,0.6-1.9,0.9-3,0.9L122.4,96z"/>
					<path class="st1" d="M121.2,96c-0.7,0-1.2-0.5-1.2-1.2l0-6.5c0-0.3,0-0.5,0.1-0.8c0.4-2.7,2.7-4.7,5.4-4.7l69-0.1c0,0,0,0,0,0
						c2.7,0,5,2,5.4,4.7c0,0.2,0.1,0.5,0.1,0.8l0,2.3c0,0.7-0.1,1.4-0.4,2.1c-0.8,2-2.8,3.4-5,3.4L121.2,96
						C121.2,96,121.2,96,121.2,96z M194.5,85.2C194.5,85.2,194.5,85.2,194.5,85.2l-69,0.1c-1.5,0-2.8,1.1-3,2.6c0,0.1,0,0.3,0,0.4
						l0,5.3l72-0.1c1.2,0,2.3-0.7,2.8-1.9c0.2-0.4,0.2-0.8,0.2-1.2l0-2.3c0,0,0,0,0,0c0-0.1,0-0.3,0-0.4
						C197.2,86.3,196,85.2,194.5,85.2z M199.9,88.2L199.9,88.2L199.9,88.2z"/>
					<g>
						<path class="st1" d="M180.2,71.7c-0.3,0-0.6-0.1-0.9-0.4c-0.5-0.5-0.5-1.2,0-1.7l3.6-3.6c0.5-0.5,1.2-0.5,1.7,0
							c0.5,0.5,0.5,1.2,0,1.7l-3.6,3.6C180.8,71.6,180.5,71.7,180.2,71.7z"/>
						<path class="st1" d="M183.7,71.7c-0.3,0-0.6-0.1-0.9-0.4l-3.6-3.6c-0.5-0.5-0.5-1.2,0-1.7c0.5-0.5,1.2-0.5,1.7,0l3.6,3.6
							c0.5,0.5,0.5,1.2,0,1.7C184.3,71.6,184,71.7,183.7,71.7z"/>
					</g>
					<g>
						<path class="st1" d="M139.7,71.7c-0.3,0-0.6-0.1-0.9-0.4l-3.6-3.6c-0.5-0.5-0.5-1.2,0-1.7c0.5-0.5,1.2-0.5,1.7,0l3.6,3.6
							c0.5,0.5,0.5,1.2,0,1.7C140.4,71.6,140,71.7,139.7,71.7z"/>
						<path class="st1" d="M136.2,71.7c-0.3,0-0.6-0.1-0.9-0.4c-0.5-0.5-0.5-1.2,0-1.7l3.6-3.6c0.5-0.5,1.2-0.5,1.7,0
							c0.5,0.5,0.5,1.2,0,1.7l-3.6,3.6C136.8,71.6,136.5,71.7,136.2,71.7z"/>
					</g>
				</g>
				<g>
					<path class="st1" d="M159.9,47.6h-47.4c-0.7,0-1.2-0.5-1.2-1.2V4.2c0-0.7,0.5-1.2,1.2-1.2h47.4c0.7,0,1.2,0.5,1.2,1.2v42.2
						C161.1,47,160.6,47.6,159.9,47.6z M113.7,45.1h45V5.4h-45V45.1z"/>
					<path class="st1" d="M153.1,41.3h-34.3c-0.7,0-1.2-0.5-1.2-1.2V10.4c0-0.7,0.5-1.2,1.2-1.2h34.3c0.7,0,1.2,0.5,1.2,1.2v29.7
						C154.3,40.8,153.7,41.3,153.1,41.3z M120,38.9h31.9V11.7H120V38.9z"/>
					<path class="st1" d="M112.5,47.6c-0.3,0-0.6-0.1-0.9-0.4c-0.5-0.5-0.5-1.2,0-1.7l6.3-6.3c0.5-0.5,1.2-0.5,1.7,0
						c0.5,0.5,0.5,1.2,0,1.7l-6.3,6.3C113.1,47.4,112.8,47.6,112.5,47.6z"/>
					<path class="st1" d="M118.8,11.7c-0.3,0-0.6-0.1-0.9-0.4L111.6,5c-0.5-0.5-0.5-1.2,0-1.7c0.5-0.5,1.2-0.5,1.7,0l6.3,6.3
						c0.5,0.5,0.5,1.2,0,1.7C119.4,11.5,119.1,11.7,118.8,11.7z"/>
					<path class="st1" d="M153.1,11.7c-0.3,0-0.7-0.1-0.9-0.4c-0.5-0.5-0.4-1.3,0.1-1.7l6.8-6.3c0.5-0.5,1.3-0.4,1.7,0.1
						c0.5,0.5,0.4,1.3-0.1,1.7l-6.8,6.3C153.7,11.5,153.4,11.7,153.1,11.7z"/>
					<path class="st1" d="M159.9,47.6c-0.3,0-0.6-0.1-0.8-0.3l-6.8-6.3c-0.5-0.5-0.5-1.2-0.1-1.7c0.5-0.5,1.2-0.5,1.7-0.1l6.8,6.3
						c0.5,0.5,0.5,1.2,0.1,1.7C160.6,47.4,160.3,47.6,159.9,47.6z"/>
					<path class="st1" d="M146.9,5.4h-12.3c-0.5,0-0.9-0.3-1.1-0.7c-0.2-0.4-0.1-0.9,0.2-1.3l6.1-7.4c0.5-0.6,1.4-0.6,1.9,0l6.1,7.4
						c0.3,0.4,0.4,0.9,0.2,1.3C147.8,5.1,147.4,5.4,146.9,5.4z M137.2,2.9h7.1l-3.6-4.3L137.2,2.9z"/>
				</g>
				<path class="st1" d="M185.6,115.9H21.8c-0.7,0-1.2-0.5-1.2-1.2s0.5-1.2,1.2-1.2h163.8c0.7,0,1.2,0.5,1.2,1.2
					S186.3,115.9,185.6,115.9z"/>
			</g>
		</g>
	</g>
	<path class="st1" d="M111.9,114.5c-31.6,0-57.2-25.7-57.2-57.2S80.4,0,111.9,0s57.2,25.7,57.2,57.2S143.5,114.5,111.9,114.5z
		 M111.9,2.4C81.7,2.4,57.1,27,57.1,57.2S81.7,112,111.9,112s54.8-24.6,54.8-54.8S142.2,2.4,111.9,2.4z"/>
</g>
<g>
	<path class="st1" d="M0,142.2c0-0.5,0.3-0.8,0.8-0.8H23c0.5,0,0.8,0.3,0.8,0.8v2.6c0,0.5-0.3,0.8-0.8,0.8h-8.7v27.7
		c0,0.5-0.3,0.8-0.8,0.8h-3.1c-0.5,0-0.8-0.3-0.8-0.8v-27.7H0.8c-0.5,0-0.8-0.3-0.8-0.8V142.2z"/>
	<path class="st1" d="M53.4,173.1c0.3,0.5,0,1-0.5,1h-3.6c-0.4,0-0.7-0.3-0.9-0.7l-3.7-7.6c-0.9,0.2-1.9,0.3-3,0.3h-7.6v7.2
		c0,0.5-0.3,0.8-0.8,0.8h-3.1c-0.5,0-0.8-0.3-0.8-0.8v-31.1c0-0.5,0.3-0.8,0.8-0.8H31c1,0,2,0,2.4,0h8.3c7.5,0,12.9,5.2,12.9,12.5
		c0,4.5-2.2,8.2-5.7,10.4L53.4,173.1z M49.8,153.8c0-4.8-3.7-8.2-8.5-8.2h-7.3v16.5h7.3C46.3,162.1,49.8,158.7,49.8,153.8z"/>
	<path class="st1" d="M66.5,173.5c0,0.4-0.2,0.6-0.6,0.6h-3.5c-0.4,0-0.6-0.2-0.6-0.6V142c0-0.4,0.2-0.6,0.6-0.6h3.5
		c0.4,0,0.6,0.2,0.6,0.6V173.5z"/>
	<path class="st1" d="M103.5,142v31.6c0,0.5-0.3,0.8-0.7,0.8h0c-0.5,0-0.7-0.3-1.1-0.6l-21.8-22.3v22c0,0.4-0.2,0.6-0.6,0.6h-3.5
		c-0.4,0-0.6-0.2-0.6-0.6v-31.6c0-0.5,0.3-0.8,0.7-0.8h0.1c0.4,0,0.7,0.3,1,0.7l21.9,22.4V142c0-0.4,0.2-0.6,0.6-0.6h3.5
		C103.3,141.4,103.5,141.6,103.5,142z"/>
	<path class="st1" d="M139.3,174.1h-3.9c-0.3,0-0.6-0.2-0.8-0.5l-11-18.9l-6.6,6.3v12.5c0,0.4-0.2,0.6-0.6,0.6h-3.5
		c-0.4,0-0.6-0.2-0.6-0.6V142c0-0.4,0.2-0.6,0.6-0.6h3.5c0.4,0,0.6,0.2,0.6,0.6v13l13.9-13c0.4-0.4,0.7-0.5,1.2-0.5h4
		c0.6,0,0.8,0.6,0.3,1.1l-9.4,8.9l12.8,21.7C140.1,173.6,139.9,174.1,139.3,174.1z"/>
	<path class="st1" d="M169.6,170.5v2.8c0,0.5-0.3,0.8-0.9,0.8H146c-0.6,0-0.8-0.3-0.8-0.8v-31c0-0.6,0.3-0.8,0.8-0.8h22.3
		c0.5,0,0.9,0.3,0.9,0.8v2.9c0,0.5-0.3,0.8-0.9,0.8h-18.4v11.4h14.7c0.6,0,1,0.3,1,0.9v2.7c0,0.5-0.4,0.8-1,0.8h-14.7v7.8h18.6
		C169.2,169.5,169.6,169.9,169.6,170.5z"/>
	<path class="st1" d="M173.1,142.2c0-0.5,0.3-0.8,0.8-0.8h22.2c0.5,0,0.8,0.3,0.8,0.8v2.6c0,0.5-0.3,0.8-0.8,0.8h-8.7v27.7
		c0,0.5-0.3,0.8-0.8,0.8h-3.1c-0.5,0-0.8-0.3-0.8-0.8v-27.7h-8.7c-0.5,0-0.8-0.3-0.8-0.8V142.2z"/>
	<path class="st1" d="M200.6,169.1c-0.3-0.4-0.3-0.8,0.2-1.2l2.1-2.1c0.3-0.3,0.8-0.2,1.2,0.2c1.9,2.3,5.3,4,8.2,4
		c4.3,0,6.7-1.9,6.7-5c0-2.8-3.1-4.1-7.5-5.8c-5.8-2-9.8-4.3-9.8-9.5c0-5.2,4.2-8.8,10.7-8.8c3.7,0,7.2,1.5,9.1,3.7
		c0.4,0.4,0.4,0.9,0.1,1.3l-1.7,2c-0.5,0.6-1,0.4-1.5,0c-1.5-1.6-3.9-2.4-6.1-2.4c-3.7,0-5.8,1.8-5.8,4.3c0,2.9,3.4,4.3,7.5,5.8
		c5.2,1.8,10.1,3.8,10.1,9.4c0,5.9-4.6,9.6-11.5,9.6C207.8,174.5,202.9,172.3,200.6,169.1z"/>
</g>
</svg>
